<svg width="0" height="0" class="hidden">
  <symbol xmlns="http://www.w3.org/2000/svg" xmlns:xlink="http://www.w3.org/1999/xlink" version="1.1" xml:space="preserve" id="head" viewBox="0 0 512 512">
    <g>
      <path d="m299.452 386.371c-27.984 9.338-58.852 9.336-86.916-.004-7.863-2.618-16.354 1.635-18.969 9.495-2.616 7.86 1.635 16.354 9.496 18.97 17.09 5.688 35.031 8.531 52.967 8.531s35.868-2.846 52.918-8.535c7.858-2.622 12.103-11.118 9.48-18.977-2.621-7.857-11.116-12.1-18.976-9.48z"></path>
      <path d="m430.736 97.999c-6.384-45.79-45.703-81.932-94.402-81.932h-17.134v-1.067c0-8.284-6.716-15-15-15h-96.4c-8.284 0-15 6.716-15 15v1.066h-17.133c-48.291 0-87.664 35.638-94.36 81.922-28.118 6.399-49.173 31.584-49.173 61.611v128.534c0 41.106 33.483 57.859 48.692 61.474 6.868 92.539 84.571 162.393 175.174 162.393 92.396 0 168.358-71.705 175.167-162.389 39.424-9.36 48.699-45.128 48.699-61.477v-128.534c.001-30.012-21.034-55.187-49.13-61.601zm-111.536-51.933h17.133c42.442 0 59.975 34.701 63.62 50.334h-80.753zm-96.4-16.066h66.4v66.4h-66.4zm-47.133 16.066h17.133v50.334h-80.691c9.729-40.756 46.651-50.334 63.558-50.334zm80.333 435.934c-74.035 0-137.32-56.086-144.904-130.667h73.97c18.407 0 36.417-7.459 49.412-20.464.077-.077.153-.155.229-.234 5.643-5.52 13.385-8.679 21.293-8.679 7.91 0 15.652 3.16 21.294 8.68.075.078.151.156.229.233 12.995 13.005 31.005 20.464 49.413 20.464h73.963c-7.533 73.301-69.642 130.667-144.899 130.667zm193.867-193.866c0 18.564-15.131 33.199-33.2 33.199h-89.731c-10.392 0-20.558-4.161-27.948-11.428-.081-.085-.163-.169-.246-.253-11.246-11.246-26.824-17.696-42.741-17.696-15.916 0-31.494 6.45-42.74 17.696-.083.083-.166.167-.247.252-7.391 7.268-17.557 11.429-27.948 11.429h-89.733c-18.012 0-33.2-14.572-33.2-33.199v-128.534c0-18.306 14.894-33.199 33.2-33.199h321.333c18.307 0 33.2 14.894 33.2 33.199v128.534z"></path>
    </g>
  </symbol>
  <symbol xmlns="http://www.w3.org/2000/svg" xmlns:xlink="http://www.w3.org/1999/xlink" version="1.1" xml:space="preserve" x="0px" y="0px" id="teach" viewBox="0 0 512 512">
    <g>
      <g>
        <path d="M135,0c-33.358,0-60,28.006-60,61c0,33.084,26.916,60,60,60s60-26.916,60-60C195,27.98,168.324,0,135,0z M135,91    c-16.542,0-30-13.458-30-30c0-16.804,13.738-31,30-31s30,14.196,30,31C165,77.542,151.542,91,135,91z"></path>
      </g>
    </g>
    <g>
      <g>
        <path d="M467,0H255c-24.813,0-45,20.187-45,45v102.365l-13.183-13.182C188.317,125.682,177.017,121,165,121h-30    c-6.359,0-53.641,0-60,0c-41.355,0-75,33.645-75,75c0,8.529,0,77.68,0,90c0,24.813,20.187,45,45,45c5.257,0,10.307-0.906,15-2.57    V467c0,24.813,20.187,45,45,45c11.515,0,22.033-4.347,30-11.486c7.967,7.139,18.485,11.486,30,11.486c24.813,0,45-20.187,45-45    V268.444c11.469,4.045,24.174,3.266,35.126-2.191L295.631,241H467c24.813,0,45-20.187,45-45V45C512,20.187,491.813,0,467,0z     M291.709,209.419l-59.982,29.991c-5.627,2.804-12.616,1.91-17.333-2.806l-8.786-8.787c-9.276-9.276-25.567-2.967-25.607,10.56    c0,0.015-0.002,0.029-0.002,0.044V467c0,8.271-6.729,15-15,15s-15-6.729-15-15V316c0-8.284-6.716-15-15-15s-15,6.716-15,15v151    c0,8.271-6.729,15-15,15s-15-6.729-15-15V286c0-11.31,0-80.756,0-90c0-8.284-6.716-15-15-15s-15,6.716-15,15c0,8.529,0,77.68,0,90    c0,8.271-6.729,15-15,15c-8.271,0-15-6.729-15-15C30,274.69,30,205.244,30,196c0-24.813,20.187-45,45-45c11.31,0,80.756,0,90,0    c4.004,0,7.77,1.561,10.604,4.396l44.707,44.707c4.564,4.565,11.54,5.696,17.314,2.81l40.669-20.335    c7.444-3.725,16.415-0.714,20.124,6.712C302.128,196.711,299.13,205.709,291.709,209.419z M482,196c0,8.271-6.729,15-15,15    H327.419c0.091-0.257,0.191-0.509,0.277-0.768c2.16-6.48,2.808-13.218,1.982-19.8l82.03-41.015    c7.41-3.705,10.413-12.715,6.708-20.125c-3.705-7.41-12.716-10.414-20.125-6.708l-82.025,41.013    c-13.142-12.712-33.613-16.747-51.393-7.849L240,168.185V45c0-8.271,6.729-15,15-15h212c8.271,0,15,6.729,15,15V196z"></path>
      </g>
    </g>
  </symbol>
  <symbol xmlns="http://www.w3.org/2000/svg" xmlns:xlink="http://www.w3.org/1999/xlink" version="1.1" xml:space="preserve" id="book" viewBox="0 0 511.989 511.989">
    <g>
      <path d="m470.994 330c0-24.146-17.205-44.348-40-48.994v-54.006c0-4.92-2.412-9.526-6.456-12.329s-9.206-3.445-13.811-1.716l-28.629 10.736c-18.8-19.545-41.652-34.266-66.694-43.303 24.608-18.234 40.59-47.478 40.59-80.388 0-55.141-44.859-100-100-100s-100 44.859-100 100c0 32.91 15.982 62.154 40.59 80.388-25.043 9.038-47.894 23.759-66.694 43.303l-28.629-10.736c-4.606-1.729-9.768-1.087-13.811 1.716-4.044 2.803-6.456 7.409-6.456 12.329v54.006c-22.795 4.646-40 24.847-40 48.994s17.205 44.348 40 48.994v58.006c0 6.253 3.879 11.85 9.733 14.045l160 60c3.374 1.258 7.159 1.258 10.533 0l160-60c5.854-2.195 9.733-7.792 9.733-14.045v-58.006c22.796-4.646 40.001-24.848 40.001-48.994zm-285-230c0-38.598 31.402-70 70-70s70 31.402 70 70-31.402 70-70 70-70-31.402-70-70zm70 100c35.143 0 68.709 12.701 94.899 35.393l-94.899 35.587-94.899-35.587c26.191-22.692 59.757-35.393 94.899-35.393zm-185 130c0-11.028 8.972-20 20-20h10v40h-10c-11.028 0-20-8.972-20-20zm40 49.497c11.397-2.323 20-12.424 20-24.497v-50c0-12.073-8.603-22.174-20-24.497v-31.858l130 48.75v177.961l-130-48.75zm160 95.858v-177.96l130-48.75v31.858c-11.397 2.323-20 12.424-20 24.497v50c0 12.073 8.603 22.174 20 24.497v47.108zm150-125.355h-10v-40h10c11.028 0 20 8.972 20 20s-8.971 20-20 20z"></path>
    </g>
  </symbol>
  <symbol xmlns="http://www.w3.org/2000/svg" xmlns:xlink="http://www.w3.org/1999/xlink" version="1.1" xml:space="preserve" id="idea" viewBox="0 0 512 512">
    <path d="m432.43 196.63c-.74-108.72-89.1-196.63-197.99-196.63-109.35 0-198 88.65-198 198 0 63.11 29.52 119.31 75.5 155.57v158.43h213v-69.64c6.11 1.45 12.25 2.14 18.3 2.14 41.711 0 79.7-32.971 79.7-78.94v-51.16l52.62-15.4zm-39.49 95.3v73.63c0 14.139-5.517 26.308-15.35 35.41-11.533 10.688-28.59 16.232-45.73 12.2l-36.92-8.77v77.6h-153v-142.98l-11.43-9.01c-19.53-15.4-35.68-35.28-46.69-57.49-11.53-23.26-17.38-48.33-17.38-74.52 0-44.87 17.47-87.06 49.2-118.79 31.74-31.73 73.93-49.21 118.8-49.21 44.67 0 86.72 17.34 118.41 48.82 31.66 31.47 49.27 73.38 49.58 118.01.057 8.492-4.19-4.079 32.43 82.83z"></path>
    <path d="m234.44 69.09c-72.76 0-131.75 58.98-131.75 131.75 0 72.76 58.99 131.75 131.75 131.75s131.75-58.99 131.75-131.75c0-72.77-58.99-131.75-131.75-131.75zm0 233.5c-56.1 0-101.75-45.65-101.75-101.75 0-56.11 45.65-101.75 101.75-101.75 56.11 0 101.75 45.64 101.75 101.75 0 56.1-45.64 101.75-101.75 101.75z"></path>
    <path d="m234.991 241.646c-10.795 0-19.359 8.343-19.359 19.36 0 10.797 8.342 19.359 19.359 19.359 10.795 0 19.36-8.342 19.36-19.359 0-10.72-8.276-19.36-19.36-19.36z"></path>
    <path d="m269.861 132.528c-8.58-7.48-19.729-11.22-33.439-11.22-13.716 0-25.118 4.18-34.21 12.54-9.096 8.36-14.448 19.875-16.06 34.54h34.979c.961-8.91 5.434-18.04 14.301-18.04 12.845 0 16.103 16.891 9.459 24.86-15.381 15.834-21.887 22.025-24.749 27.609-2.836 5.539-2.31 13.067-2.31 30.03h33.439c0-13.528-.383-18.405 1.539-22.11 2.845-5.494 11.773-12.012 20.57-22.33 8.758-10.272 9.35-18.67 9.35-24.86 0-13.199-4.289-23.539-12.869-31.019z"></path>
  </symbol>
  <symbol xmlns="http://www.w3.org/2000/svg" x="0px" y="0px" enable-background="new 0 0 112.2 112.2" xml:space="preserve" id="facebook" viewBox="0 0 112.2 112.2">
    <path d="M75.5,28.8H65.4c-1.5,0-4,0.9-4,4.3v9.4h13.9l-1.5,15.8H61.4v45.1H42.8V58.3h-8.8V42.4h8.8V32.2 c0-7.4,3.4-18.8,18.8-18.8h13.8v15.4H75.5z"></path>
  </symbol>
  <symbol xmlns="http://www.w3.org/2000/svg" x="0px" y="0px" enable-background="new 0 0 112.2 112.2" xml:space="preserve" id="instagram" viewBox="0 0 112.2 112.2">
    <path d="M55.9,32.9c-12.8,0-23.2,10.4-23.2,23.2s10.4,23.2,23.2,23.2s23.2-10.4,23.2-23.2S68.7,32.9,55.9,32.9z M55.9,69.4c-7.4,0-13.3-6-13.3-13.3c-0.1-7.4,6-13.3,13.3-13.3s13.3,6,13.3,13.3C69.3,63.5,63.3,69.4,55.9,69.4z"></path>
    <path d="M79.7,26.8c-3,0-5.4,2.5-5.4,5.4s2.5,5.4,5.4,5.4c3,0,5.4-2.5,5.4-5.4S82.7,26.8,79.7,26.8z"></path>
    <path d="M78.2,11H33.5C21,11,10.8,21.3,10.8,33.7v44.7c0,12.6,10.2,22.8,22.7,22.8h44.7c12.6,0,22.7-10.2,22.7-22.7 V33.7C100.8,21.1,90.6,11,78.2,11z M91,78.4c0,7.1-5.8,12.8-12.8,12.8H33.5c-7.1,0-12.8-5.8-12.8-12.8V33.7 c0-7.1,5.8-12.8,12.8-12.8h44.7c7.1,0,12.8,5.8,12.8,12.8V78.4z"></path>
  </symbol>
  <symbol xmlns="http://www.w3.org/2000/svg" x="0px" y="0px" enable-background="new 0 0 112.2 112.2" xml:space="preserve" id="twitter" viewBox="0 0 112.2 112.2">
    <path d="M92.2,38.2c0,0.8,0,1.6,0,2.3c0,24.3-18.6,52.4-52.6,52.4c-10.6,0.1-20.2-2.9-28.5-8.2 c1.4,0.2,2.9,0.2,4.4,0.2c8.7,0,16.7-2.9,23-7.9c-8.1-0.2-14.9-5.5-17.3-12.8c1.1,0.2,2.4,0.2,3.4,0.2c1.6,0,3.3-0.2,4.8-0.7 c-8.4-1.6-14.9-9.2-14.9-18c0-0.2,0-0.2,0-0.2c2.5,1.4,5.4,2.2,8.4,2.3c-5-3.3-8.3-8.9-8.3-15.4c0-3.4,1-6.5,2.5-9.2 c9.1,11.1,22.7,18.5,38,19.2c-0.2-1.4-0.4-2.8-0.4-4.3c0.1-10,8.3-18.2,18.5-18.2c5.4,0,10.1,2.2,13.5,5.7c4.3-0.8,8.1-2.3,11.7-4.5 c-1.4,4.3-4.3,7.9-8.1,10.1c3.7-0.4,7.3-1.4,10.6-2.9C98.9,32.3,95.7,35.5,92.2,38.2z"></path>
  </symbol>
</svg>