<svg width="0" height="0" class="hidden">
  <symbol xmlns="http://www.w3.org/2000/svg" xmlns:xlink="http://www.w3.org/1999/xlink" version="1.1" id="bar" x="0px" y="0px" xml:space="preserve" viewBox="0 0 302 302">
    <g>
      <rect y="36" width="302" height="30"></rect>
      <rect y="236" width="302" height="30"></rect>
      <rect y="136" width="302" height="30"></rect>
    </g>
    <g></g>
    <g></g>
    <g></g>
    <g></g>
    <g></g>
    <g></g>
    <g></g>
    <g></g>
    <g></g>
    <g></g>
    <g></g>
    <g></g>
    <g></g>
    <g></g>
    <g></g>
  </symbol>
  <symbol xmlns="http://www.w3.org/2000/svg" xmlns:xlink="http://www.w3.org/1999/xlink" version="1.1" xml:space="preserve" id="book" viewBox="0 0 511.989 511.989">
    <g>
      <path d="m470.994 330c0-24.146-17.205-44.348-40-48.994v-54.006c0-4.92-2.412-9.526-6.456-12.329s-9.206-3.445-13.811-1.716l-28.629 10.736c-18.8-19.545-41.652-34.266-66.694-43.303 24.608-18.234 40.59-47.478 40.59-80.388 0-55.141-44.859-100-100-100s-100 44.859-100 100c0 32.91 15.982 62.154 40.59 80.388-25.043 9.038-47.894 23.759-66.694 43.303l-28.629-10.736c-4.606-1.729-9.768-1.087-13.811 1.716-4.044 2.803-6.456 7.409-6.456 12.329v54.006c-22.795 4.646-40 24.847-40 48.994s17.205 44.348 40 48.994v58.006c0 6.253 3.879 11.85 9.733 14.045l160 60c3.374 1.258 7.159 1.258 10.533 0l160-60c5.854-2.195 9.733-7.792 9.733-14.045v-58.006c22.796-4.646 40.001-24.848 40.001-48.994zm-285-230c0-38.598 31.402-70 70-70s70 31.402 70 70-31.402 70-70 70-70-31.402-70-70zm70 100c35.143 0 68.709 12.701 94.899 35.393l-94.899 35.587-94.899-35.587c26.191-22.692 59.757-35.393 94.899-35.393zm-185 130c0-11.028 8.972-20 20-20h10v40h-10c-11.028 0-20-8.972-20-20zm40 49.497c11.397-2.323 20-12.424 20-24.497v-50c0-12.073-8.603-22.174-20-24.497v-31.858l130 48.75v177.961l-130-48.75zm160 95.858v-177.96l130-48.75v31.858c-11.397 2.323-20 12.424-20 24.497v50c0 12.073 8.603 22.174 20 24.497v47.108zm150-125.355h-10v-40h10c11.028 0 20 8.972 20 20s-8.971 20-20 20z"></path>
    </g>
  </symbol>
  <symbol xmlns="http://www.w3.org/2000/svg" x="0px" y="0px" enable-background="new 0 0 112.2 112.2" xml:space="preserve" id="facebook" viewBox="0 0 112.2 112.2">
    <path d="M75.5,28.8H65.4c-1.5,0-4,0.9-4,4.3v9.4h13.9l-1.5,15.8H61.4v45.1H42.8V58.3h-8.8V42.4h8.8V32.2 c0-7.4,3.4-18.8,18.8-18.8h13.8v15.4H75.5z"></path>
  </symbol>
  <symbol xmlns="http://www.w3.org/2000/svg" xmlns:xlink="http://www.w3.org/1999/xlink" version="1.1" xml:space="preserve" id="idea" viewBox="0 0 512 512">
    <path d="m432.43 196.63c-.74-108.72-89.1-196.63-197.99-196.63-109.35 0-198 88.65-198 198 0 63.11 29.52 119.31 75.5 155.57v158.43h213v-69.64c6.11 1.45 12.25 2.14 18.3 2.14 41.711 0 79.7-32.971 79.7-78.94v-51.16l52.62-15.4zm-39.49 95.3v73.63c0 14.139-5.517 26.308-15.35 35.41-11.533 10.688-28.59 16.232-45.73 12.2l-36.92-8.77v77.6h-153v-142.98l-11.43-9.01c-19.53-15.4-35.68-35.28-46.69-57.49-11.53-23.26-17.38-48.33-17.38-74.52 0-44.87 17.47-87.06 49.2-118.79 31.74-31.73 73.93-49.21 118.8-49.21 44.67 0 86.72 17.34 118.41 48.82 31.66 31.47 49.27 73.38 49.58 118.01.057 8.492-4.19-4.079 32.43 82.83z"></path>
    <path d="m234.44 69.09c-72.76 0-131.75 58.98-131.75 131.75 0 72.76 58.99 131.75 131.75 131.75s131.75-58.99 131.75-131.75c0-72.77-58.99-131.75-131.75-131.75zm0 233.5c-56.1 0-101.75-45.65-101.75-101.75 0-56.11 45.65-101.75 101.75-101.75 56.11 0 101.75 45.64 101.75 101.75 0 56.1-45.64 101.75-101.75 101.75z"></path>
    <path d="m234.991 241.646c-10.795 0-19.359 8.343-19.359 19.36 0 10.797 8.342 19.359 19.359 19.359 10.795 0 19.36-8.342 19.36-19.359 0-10.72-8.276-19.36-19.36-19.36z"></path>
    <path d="m269.861 132.528c-8.58-7.48-19.729-11.22-33.439-11.22-13.716 0-25.118 4.18-34.21 12.54-9.096 8.36-14.448 19.875-16.06 34.54h34.979c.961-8.91 5.434-18.04 14.301-18.04 12.845 0 16.103 16.891 9.459 24.86-15.381 15.834-21.887 22.025-24.749 27.609-2.836 5.539-2.31 13.067-2.31 30.03h33.439c0-13.528-.383-18.405 1.539-22.11 2.845-5.494 11.773-12.012 20.57-22.33 8.758-10.272 9.35-18.67 9.35-24.86 0-13.199-4.289-23.539-12.869-31.019z"></path>
  </symbol>
  <symbol xmlns="http://www.w3.org/2000/svg" x="0px" y="0px" enable-background="new 0 0 112.2 112.2" xml:space="preserve" id="twitter" viewBox="0 0 112.2 112.2">
    <path d="M92.2,38.2c0,0.8,0,1.6,0,2.3c0,24.3-18.6,52.4-52.6,52.4c-10.6,0.1-20.2-2.9-28.5-8.2 c1.4,0.2,2.9,0.2,4.4,0.2c8.7,0,16.7-2.9,23-7.9c-8.1-0.2-14.9-5.5-17.3-12.8c1.1,0.2,2.4,0.2,3.4,0.2c1.6,0,3.3-0.2,4.8-0.7 c-8.4-1.6-14.9-9.2-14.9-18c0-0.2,0-0.2,0-0.2c2.5,1.4,5.4,2.2,8.4,2.3c-5-3.3-8.3-8.9-8.3-15.4c0-3.4,1-6.5,2.5-9.2 c9.1,11.1,22.7,18.5,38,19.2c-0.2-1.4-0.4-2.8-0.4-4.3c0.1-10,8.3-18.2,18.5-18.2c5.4,0,10.1,2.2,13.5,5.7c4.3-0.8,8.1-2.3,11.7-4.5 c-1.4,4.3-4.3,7.9-8.1,10.1c3.7-0.4,7.3-1.4,10.6-2.9C98.9,32.3,95.7,35.5,92.2,38.2z"></path>
  </symbol>
</svg>